<svg xmlns="http://www.w3.org/2000/svg" viewBox="0 0 19 23"><title>z-cart</title><g id="Camada_2" data-name="Camada 2"><g id="Camada_1-2" data-name="Camada 1"><path d="M19,21.28,17.4,6.91a1.55,1.55,0,0,0-1.55-1.38H14.64V5.09a5.14,5.14,0,0,0-10.28,0v.44H3.15A1.56,1.56,0,0,0,1.6,6.91L0,21.28A1.54,1.54,0,0,0,.4,22.49,1.6,1.6,0,0,0,1.56,23H17.44l.24,0h.16a1.58,1.58,0,0,0,.49-.23l0,0a1.21,1.21,0,0,0,.24-.21A1.54,1.54,0,0,0,19,21.28ZM5.7,5.09a3.8,3.8,0,0,1,7.6,0v.44H5.7Zm-2.77,2a.22.22,0,0,1,.22-.19H4.36v2a.67.67,0,0,0,1.34,0v-2h7.6v2a.67.67,0,0,0,1.34,0v-2h1.21a.22.22,0,0,1,.22.19l1.2,10.86H1.73ZM17.6,21.6a.2.2,0,0,1-.16.07H1.56a.2.2,0,0,1-.16-.07.21.21,0,0,1-.06-.17l.24-2.19H17.42l.24,2.19A.21.21,0,0,1,17.6,21.6Z"/></g></g></svg>