<svg class="svg-sprites" id="skin-sprite" xmlns="http://www.w3.org/2000/svg" xmlns:xlink="http://www.w3.org/1999/xlink">
    <symbol viewBox="0 0 19 23" id="z-cart" xmlns="http://www.w3.org/2000/svg"><g data-name="Camada 2"><path d="M19 21.28L17.4 6.91a1.55 1.55 0 00-1.55-1.38h-1.21v-.44a5.14 5.14 0 00-10.28 0v.44H3.15A1.56 1.56 0 001.6 6.91L0 21.28a1.54 1.54 0 00.4 1.21 1.6 1.6 0 001.16.51h16.28a1.58 1.58 0 00.49-.23 1.21 1.21 0 00.24-.21 1.54 1.54 0 00.43-1.28zM5.7 5.09a3.8 3.8 0 017.6 0v.44H5.7zm-2.77 2a.22.22 0 01.22-.19h1.21v2a.67.67 0 001.34 0v-2h7.6v2a.67.67 0 001.34 0v-2h1.21a.22.22 0 01.22.19l1.2 10.86H1.73zM17.6 21.6a.2.2 0 01-.16.07H1.56a.2.2 0 01-.16-.07.21.21 0 01-.06-.17l.24-2.19h15.84l.24 2.19a.21.21 0 01-.06.17z" data-name="Camada 1"/></g></symbol>
    <symbol viewBox="0 0 20 20" id="z-close" xmlns="http://www.w3.org/2000/svg"><g data-name="Camada 2"><path d="M8.9 10L.23 18.67a.77.77 0 000 1.1.77.77 0 001.1 0L10 11.1l8.67 8.67a.78.78 0 001.1-1.1L11.1 10l8.67-8.67a.77.77 0 000-1.1.77.77 0 00-1.1 0L10 8.9 1.33.23a.77.77 0 00-1.1 0 .77.77 0 000 1.1z" data-name="Camada 1"/></g></symbol>
    <symbol viewBox="0 0 14 14" id="z-more" xmlns="http://www.w3.org/2000/svg"><g id="cCamada_2" data-name="Camada 2"><g id="cCamada_1-2" data-name="Camada 1"><path class="ccls-1" d="M.5 6.5h13v1H.5z"/><path d="M14 6H0v2h14V6z"/><path class="ccls-1" d="M6.5.5h1v13h-1z"/><path d="M8 0H6v14h2V0z"/></g></g></symbol>
    <symbol viewBox="0 0 13.03 9.01" id="z-next" xmlns="http://www.w3.org/2000/svg"><g data-name="Camada 2"><path d="M8.78.14a.45.45 0 00-.66 0 .45.45 0 000 .64l3.33 3.27H.46a.46.46 0 100 .95h11L8.12 8.23a.46.46 0 000 .65.47.47 0 00.66 0l4.11-4.05a.43.43 0 000-.64z" data-name="Camada 1"/></g></symbol>
    <symbol viewBox="0 0 13 9.01" id="z-prev" xmlns="http://www.w3.org/2000/svg"><g data-name="Camada 2"><path d="M4.25.14a.44.44 0 01.65 0 .45.45 0 010 .64L1.58 4.05h11a.46.46 0 110 .91h-11L4.9 8.23a.46.46 0 01-.65.65L.14 4.83a.43.43 0 010-.64z" data-name="Camada 1"/></g></symbol>
    <symbol viewBox="0 0 17 17" id="z-search" xmlns="http://www.w3.org/2000/svg"><g data-name="Camada 2"><path d="M16.9 15.89L12 11a6.74 6.74 0 10-1 1l4.93 4.94a.38.38 0 00.51 0l.5-.5a.38.38 0 00-.04-.55zM6.73 12A5.31 5.31 0 1112 6.73 5.31 5.31 0 016.73 12z" data-name="Camada 1"/></g></symbol>
    <symbol viewBox="0 0 23 23" id="z-user" xmlns="http://www.w3.org/2000/svg"><g data-name="Camada 2"><path d="M19.63 14.87a11.42 11.42 0 00-4.37-2.74 6.65 6.65 0 10-7.52 0A11.52 11.52 0 000 23h1.8a9.7 9.7 0 0119.4 0H23a11.43 11.43 0 00-3.37-8.13zM11.5 11.5a4.85 4.85 0 114.85-4.85 4.85 4.85 0 01-4.85 4.85z" data-name="Camada 1"/></g></symbol>
</svg>